<svg xmlns="http://www.w3.org/2000/svg" xmlns:xlink="http://www.w3.org/1999/xlink" width="20" height="20" viewBox="0 0 20 20">
  <defs>
    <path id="a" d="M6.532 14.6H2.405a.4.4 0 0 0 0 .8h4.127a.4.4 0 0 0 0-.8zm-4.127-3.2h5.787a.4.4 0 0 0 0-.8H2.405a.4.4 0 0 0 0 .8zm4.127 1.2H2.405a.4.4 0 0 0 0 .8h4.127a.4.4 0 0 0 0-.8zM2.405 9.4H9.43a.4.4 0 0 0 0-.8H2.405a.4.4 0 0 0 0 .8zm0-6h7.2a.4.4 0 0 0 0-.8h-7.2a.4.4 0 0 0 0 .8zm14.659 1.024l-.894 1.328-1.328-.896.896-1.326a.794.794 0 0 1 .664-.352.79.79 0 0 1 .446.136c.178.12.298.3.338.51a.794.794 0 0 1-.122.6zM12 11.932l-.8 1.188-.934 1.384-1.058.434a.208.208 0 0 1-.076.016.2.2 0 0 1-.2-.202l.006-1.142 2.262-3.352.8-1.186 2.396-3.552 1.326.894L12 11.932zM11.2 16c0 .662-.538 1.2-1.2 1.2H2c-.662 0-1.2-.538-1.2-1.2V2C.8 1.338 1.338.8 2 .8h8c.662 0 1.2.538 1.2 1.2v6.826l-3.06 4.536-.008 1.386a1.003 1.003 0 0 0 1.38.93l1.28-.526.408-.604V16zm6.096-13.35a1.604 1.604 0 0 0-2.222.432L14.18 4.41l-.292.43L12 7.64V2a2 2 0 0 0-2-2H2a2 2 0 0 0-2 2v14a2 2 0 0 0 2 2h8a2 2 0 0 0 2-2v-2.638l4.384-6.5.28-.414 1.062-1.576a1.6 1.6 0 0 0-.43-2.222zM2.405 5.4h7.2a.4.4 0 0 0 0-.8h-7.2a.4.4 0 0 0 0 .8zm0 2h7.2a.4.4 0 0 0 0-.8h-7.2a.4.4 0 0 0 0 .8z" />
  </defs>
  <g fill="none" fill-rule="evenodd" transform="translate(1 1)">
    <mask id="b" fill="#fff">
      <use xlink:href="#a" />
    </mask>
    <g fill="#F9A53F" mask="url(#b)">
      <path d="M-1-1h20v20H-1z" />
    </g>
  </g>
</svg>
