<svg xmlns="http://www.w3.org/2000/svg" width="20" height="20" viewBox="0 0 20 20">
  <path fill="#fff" fill-rule="evenodd" d="M10 16.4A6.407 6.407 0 0 1 3.6 10c0-3.529 2.871-6.4 6.4-6.4 3.529 0 6.4 2.871 6.4 6.4 0 3.529-2.871 6.4-6.4 6.4M10 2a8 8 0 1 0 0 16 8 8 0 0 0 0-16m.035 3.445c-1.923 0-3.012 1.077-3.044 2.617h1.697c.038-.707.514-1.164 1.234-1.164.714 0 1.19.432 1.19 1.027s-.245.902-1.052 1.384c-.865.507-1.209 1.07-1.128 2.053l.013.363h1.66v-.331c0-.614.231-.92 1.064-1.403.883-.52 1.34-1.177 1.34-2.122 0-1.428-1.184-2.424-2.974-2.424m-.239 7.307c-.563 0-1.02.432-1.02.983 0 .551.457.983 1.02.983.57 0 1.027-.432 1.027-.983 0-.55-.457-.983-1.027-.983" />
</svg>
