<svg xmlns="http://www.w3.org/2000/svg" xmlns:xlink="http://www.w3.org/1999/xlink" width="20" height="20" viewBox="0 0 20 20">
    <defs>
        <path id="a" d="M13.252 15.2a3.184 3.184 0 0 1-2.052-.748 3.19 3.19 0 0 1 0-4.904c.24-.202.508-.368.8-.492.146-.064.296-.116.452-.156v3.5c0 .222.18.4.4.4h3.5a3.208 3.208 0 0 1-3.1 2.4zm-2.052.822c0 .654-.538 1.186-1.2 1.186H2c-.662 0-1.2-.532-1.2-1.186V3.078c0-.654.538-1.186 1.2-1.186h1.052C3.222 2.53 3.806 3 4.498 3h3c.692 0 1.276-.47 1.446-1.108H10c.662 0 1.2.532 1.2 1.186v5.49A3.992 3.992 0 0 0 9.252 12c0 1.46.782 2.736 1.948 3.432v.59zM3.926 1.1a.695.695 0 0 1 .572-.3h3c.236 0 .446.118.572.3a.685.685 0 0 1 .006.792.697.697 0 0 1-.578.308h-3a.698.698 0 0 1-.578-.308.685.685 0 0 1 .006-.792zM16.598 12h-3.346V8.654a.6.6 0 0 0-.704-.592l-.096.018A4.177 4.177 0 0 0 12 8.2V3.078A1.99 1.99 0 0 0 10 1.1H8.942A1.497 1.497 0 0 0 7.498 0h-3c-.69 0-1.27.466-1.444 1.1H2c-1.104 0-2 .886-2 1.978v12.944A1.99 1.99 0 0 0 2 18h8c1.104 0 2-.886 2-1.978V15.8a4 4 0 0 0 5.19-3.096.602.602 0 0 0-.592-.704zM2.404 13.4h5.233a.4.4 0 0 0 0-.8H2.404a.4.4 0 0 0 0 .8zm14.746-3h-2.298V8.102c0-.002 0-.002.002-.002a3.223 3.223 0 0 1 2.298 2.298c0 .002 0 .002-.002.002zm.838.082l-.026-.126a3.91 3.91 0 0 0-3.066-3.068l-.126-.024a.6.6 0 0 0-.718.588V10.8c0 .222.18.4.4.4H17.4a.6.6 0 0 0 .588-.718zM8.674 8.6H2.406a.4.4 0 0 0 0 .8h6.268a.4.4 0 0 0 0-.8zm0 6H2.406a.4.4 0 0 0 0 .8h6.268a.4.4 0 0 0 0-.8zm-6.27-3.2h5.233a.4.4 0 0 0 0-.8H2.404a.4.4 0 0 0 0 .8zm0-6h7.2a.4.4 0 0 0 0-.8h-7.2a.4.4 0 0 0 0 .8zm0 2h7.2a.4.4 0 0 0 0-.8h-7.2a.4.4 0 0 0 0 .8z"/>
    </defs>
    <g fill="none" fill-rule="evenodd" transform="translate(1 1)">
        <mask id="b" fill="#fff">
            <use xlink:href="#a"/>
        </mask>
        <g fill="#F9A53F" mask="url(#b)">
            <path d="M-1-1h20v20H-1z"/>
        </g>
    </g>
</svg>
