<svg xmlns="http://www.w3.org/2000/svg" xmlns:xlink="http://www.w3.org/1999/xlink" width="20" height="20" viewBox="0 0 20 20">
    <defs>
        <path id="a" d="M9.214 10.64a4.572 4.572 0 0 1-2.134.988v.872a.801.801 0 0 1-1.6 0v-.872a4.572 4.572 0 0 1-2.72-1.572l-.704.406-.052.03A.802.802 0 0 1 .91 10.2a.803.803 0 0 1 .294-1.094l.052-.03.702-.404a4.343 4.343 0 0 1-.212-.802 4.446 4.446 0 0 1-.066-.77c0-.264.022-.522.066-.772.046-.276.116-.544.212-.8l-.702-.406-.052-.03a.8.8 0 1 1 .8-1.386l.054.03.702.406a4.582 4.582 0 0 1 2.72-1.57V1.7a.8.8 0 1 1 1.6 0v.872a4.582 4.582 0 0 1 2.72 1.57l.702-.406.054-.03a.808.808 0 0 1 .608-.08.8.8 0 0 1 .192 1.466l-.052.03-.702.406c.096.256.166.524.212.8.044.25.066.508.066.772 0 .262-.022.52-.066.77a4.343 4.343 0 0 1-.212.802l.702.404.052.03a.804.804 0 0 1 .294 1.094.805.805 0 0 1-1.094.292l-.052-.03-.704-.406a4.49 4.49 0 0 1-.586.584zm.942.544a1.6 1.6 0 0 0 1.6-2.77l-.21-.122a5.342 5.342 0 0 0 0-2.386l.21-.122a1.597 1.597 0 0 0 .586-2.184 1.599 1.599 0 0 0-2.186-.586l-.212.122A5.382 5.382 0 0 0 7.88 1.94V1.7a1.6 1.6 0 1 0-3.2 0v.24a5.382 5.382 0 0 0-2.064 1.196l-.212-.122a1.598 1.598 0 0 0-1.6 2.77l.21.122a5.342 5.342 0 0 0 0 2.386l-.21.122A1.597 1.597 0 0 0 .218 10.6a1.599 1.599 0 0 0 2.186.584l.21-.122A5.38 5.38 0 0 0 4.68 12.26v.24a1.6 1.6 0 0 0 3.2 0v-.24a5.38 5.38 0 0 0 2.066-1.198l.21.122zm4.126 1.028a1.121 1.121 0 0 1-.378.218 1.16 1.16 0 0 1-.8 0 1.121 1.121 0 0 1-.378-.218 1.205 1.205 0 0 1-.343-.487c-.216.16-.459.28-.716.361.084.2.199.382.341.54.088.102.188.192.296.272.128.098.266.178.416.242a2.01 2.01 0 0 0 1.568 0c.15-.064.288-.144.416-.242.108-.08.208-.17.296-.272.178-.198.316-.432.4-.692a1.85 1.85 0 0 0 .104-.634A1.977 1.977 0 0 0 15 9.974a1.817 1.817 0 0 0-.296-.272 1.818 1.818 0 0 0-.414-.24 1.928 1.928 0 0 0-.786-.162c-.068 0-.136.003-.202.01a2.375 2.375 0 0 1 .033.805 1.16 1.16 0 0 1 .57.055c.053.016.105.04.153.064l.062.036a1.202 1.202 0 0 1 .564 1.25 1.204 1.204 0 0 1-.402.692zm3.112-.05l-.168-.096c.052-.248.078-.504.078-.766s-.026-.518-.078-.764l.168-.096a1.2 1.2 0 1 0-1.2-2.078l-.168.098a3.732 3.732 0 0 0-1.322-.764V7.5a1.199 1.199 0 1 0-2.231-.61c.002.07.007.14.007.21 0 .27-.018.538-.053.804.172.133.32.29.45.463.074-.016.15-.03.227-.039V7.5c0-.22.18-.4.4-.4.22 0 .4.18.4.4v.828a3.041 3.041 0 0 1 1.38.558c.224.166.424.362.594.582l.696-.402.02-.012a.4.4 0 1 1 .4.694l-.018.01-.698.404c.106.252.176.522.206.804a2.688 2.688 0 0 1 0 .67c-.03.282-.1.552-.206.804l.698.404.018.01a.397.397 0 0 1 .148.546.4.4 0 0 1-.548.148l-.02-.012-.698-.402c-.17.22-.368.414-.592.58a3.041 3.041 0 0 1-1.38.558v.828a.4.4 0 1 1-.8 0v-.828a3.034 3.034 0 0 1-1.38-.558 3.013 3.013 0 0 1-.592-.58l-.698.402-.02.012a.4.4 0 1 1-.4-.694l.018-.01.698-.404a2.86 2.86 0 0 1-.094-.265 2.4 2.4 0 0 1-.587-.155 6.294 6.294 0 0 1-.852.547 1.18 1.18 0 0 0-.022 1.233 1.2 1.2 0 0 0 1.64.44l.17-.098c.377.338.825.6 1.32.764v.194a1.2 1.2 0 1 0 2.4 0v-.194a3.754 3.754 0 0 0 1.32-.764l.17.098a1.201 1.201 0 0 0 1.2-2.078zM8.854 7.46a2.596 2.596 0 0 1-.974 1.688 2.62 2.62 0 0 1-.8.424 2.53 2.53 0 0 1-.8.128 2.53 2.53 0 0 1-.8-.128 2.62 2.62 0 0 1-.942-.544 2.596 2.596 0 0 1 .942-4.4 2.53 2.53 0 0 1 .8-.128c.278 0 .548.044.8.128a2.567 2.567 0 0 1 .94.542 2.592 2.592 0 0 1 .834 2.29zm.688-1.32a3.36 3.36 0 0 0-.802-1.386 3.313 3.313 0 0 0-.86-.654 3.272 3.272 0 0 0-.8-.304 3.294 3.294 0 0 0-.8-.096c-.276 0-.544.032-.8.096a3.272 3.272 0 0 0-.998.418 3.313 3.313 0 0 0-.662.54 3.36 3.36 0 0 0-.802 1.386c-.08.268-.126.552-.136.844-.002.038-.002.076-.002.116a3.354 3.354 0 0 0 .138.958c.154.528.432 1 .802 1.386.194.208.418.39.662.54a3.272 3.272 0 0 0 .998.42c.256.064.524.096.8.096s.544-.032.8-.096a3.272 3.272 0 0 0 .998-.42c.244-.15.468-.332.662-.54a3.36 3.36 0 0 0 .802-1.386c.08-.268.126-.552.136-.844.002-.038.002-.076.002-.114 0-.04 0-.078-.002-.116a3.354 3.354 0 0 0-.136-.844z"/>
    </defs>
    <g fill="none" fill-rule="evenodd" transform="translate(1 1.8)">
        <mask id="b" fill="#fff">
            <use xlink:href="#a"/>
        </mask>
        <g fill="#F9A53F" mask="url(#b)">
            <path d="M-1-2h20v20H-1z"/>
        </g>
    </g>
</svg>
