<svg xmlns="http://www.w3.org/2000/svg" xmlns:xlink="http://www.w3.org/1999/xlink" width="20" height="20" viewBox="0 0 20 20">
    <defs>
        <path id="a" d="M14.482 6.752c-.083 1.026-.326 2.418-.568 3.845a136.102 136.102 0 0 1-.741 3.914c-.097.458-.312.77-.707.77-.395 0-.735-.264-.873-.368-.139-.104-2.626-1.912-3.02-2.23-.396-.32-.09-.783.124-1.005.215-.222 1.697-1.607 2.085-1.981.388-.375.915-.922.998-1.005.083-.083.08-.218.014-.284-.066-.066-.18-.042-.263.007a22.48 22.48 0 0 0-.714.45L7.81 10.881c-.713.478-.963.658-1.42.658-.457 0-1.496-.374-1.787-.47-.291-.098-.832-.25-.832-.583 0-.332.665-.547 1.254-.81.59-.264 5.218-2.22 6.942-2.924a60.802 60.802 0 0 1 1.372-.526c.194-.07 1.226-.5 1.143.526M10 0C4.477 0 0 4.477 0 10s4.477 10 10 10 10-4.477 10-10S15.523 0 10 0"/>
    </defs>
    <g fill="none" fill-rule="evenodd">
        <mask id="b" fill="#fff">
            <use xlink:href="#a"/>
        </mask>
        <g fill="#f9a53f" mask="url(#b)">
            <path d="M0 0h20v20H0z"/>
        </g>
    </g>
</svg>
