<svg xmlns="http://www.w3.org/2000/svg" xmlns:xlink="http://www.w3.org/1999/xlink" width="70" height="70" viewBox="0 0 70 70">
    <defs>
        <path id="a" d="M52.444 51.107c-.532-6.818-4.977-12.537-11.095-14.917a12.166 12.166 0 0 0 2.4-7.28c0-6.762-5.487-12.25-12.25-12.25-6.761 0-12.25 5.488-12.25 12.25 0 2.724.89 5.243 2.402 7.28-6.118 2.38-10.556 8.092-11.095 14.91C5.746 45.969 2.8 39.067 2.8 31.5c0-15.827 12.88-28.7 28.7-28.7 15.827 0 28.7 12.873 28.7 28.7a28.606 28.606 0 0 1-7.756 19.607zM35.539 40.475l-4.04 6.985-4.031-6.985a12.03 12.03 0 0 0 4.032.685 12.03 12.03 0 0 0 4.032-.685h.007zm-.833-2.675a9.355 9.355 0 0 1-3.206.56 9.355 9.355 0 0 1-3.206-.56 9.495 9.495 0 0 1-3.71-2.463 9.41 9.41 0 0 1-2.534-6.427c0-5.207 4.242-9.45 9.45-9.45 5.209 0 9.45 4.243 9.45 9.45a9.41 9.41 0 0 1-2.534 6.427 9.495 9.495 0 0 1-3.71 2.463zM49.7 53.684C44.737 57.75 38.402 60.2 31.5 60.2a28.574 28.574 0 0 1-18.2-6.524V52.5c0-6.412 4.123-11.878 9.863-13.874h.007l7.119 12.334c.007.015.02.028.035.043.049.076.098.147.16.209.022.022.036.042.057.063.084.078.168.14.259.197h.007a1.3 1.3 0 0 0 .266.112c.14.048.287.076.427.076h.007c.14 0 .28-.028.427-.076a1.204 1.204 0 0 0 .525-.309l.063-.063c.056-.062.112-.133.162-.21.006-.014.02-.027.034-.042l7.119-12.334a14.722 14.722 0 0 1 7.084 5.278A14.624 14.624 0 0 1 49.7 52.5v1.184zM31.5 0C14.105 0 0 14.106 0 31.5c0 9.33 4.053 17.71 10.5 23.478a31.183 31.183 0 0 0 3.03 2.394 30.828 30.828 0 0 0 4.978 2.828C22.47 62 26.866 63 31.5 63s9.03-1 12.992-2.8a30.798 30.798 0 0 0 4.977-2.828 30.28 30.28 0 0 0 3.03-2.394C58.948 49.21 63 40.83 63 31.5 63 14.106 48.903 0 31.5 0z"/>
    </defs>
    <g fill="none" fill-rule="evenodd" transform="translate(3.5 3.5)">
        <mask id="b" fill="#fff">
            <use xlink:href="#a"/>
        </mask>
        <g fill="#909090" mask="url(#b)">
            <path d="M-3.5-3.5h70v70h-70z"/>
        </g>
    </g>
</svg>
