<svg xmlns="http://www.w3.org/2000/svg" xmlns:xlink="http://www.w3.org/1999/xlink" width="20" height="20" viewBox="0 0 20 20">
    <defs>
        <path id="a" d="M2.405 9.4h5.318a.4.4 0 0 0 0-.8H2.405a.4.4 0 0 0 0 .8zm3.026 3.2H2.405a.4.4 0 0 0 0 .8H5.43a.4.4 0 0 0 0-.8zM17.2 14c0 .662-.54 1.2-1.2 1.2H9c-.663 0-1.2-.538-1.2-1.2v-.334a4.21 4.21 0 0 1 2.773-3.952L11.2 10.8l.8 1.388.148.256a.56.56 0 0 0 .064.088l.002.002a.403.403 0 0 0 .39.104l.032-.011c.012-.005.024-.007.036-.013a.96.96 0 0 0 .046-.024c0-.002.002-.002.002-.002.012-.008.024-.018.036-.028a.181.181 0 0 0 .028-.026.357.357 0 0 0 .064-.08l.002-.004 1.578-2.734a4.207 4.207 0 0 1 2.772 3.95V14zM10 17.2H2c-.663 0-1.2-.538-1.2-1.2V2C.8 1.338 1.337.8 2 .8h8c.66 0 1.2.538 1.2 1.2v2.462a3 3 0 0 0-1.057 4.562A5 5 0 0 0 7 13.666V14a2 2 0 0 0 2 2h2.2c0 .662-.538 1.2-1.2 1.2zm3.305-7.144l-.806 1.398-.5-.868-.306-.53a3.087 3.087 0 0 0 .806.11c.28 0 .55-.038.806-.11zM12 5.024a2.203 2.203 0 0 1 2.572 2.878v.002c-.1.286-.26.544-.462.762l-.102.102a2.19 2.19 0 0 1-2.008.54 2.184 2.184 0 0 1-1.006-.54c-.036-.034-.072-.068-.104-.104a2.195 2.195 0 0 1 .31-3.27c.234-.174.506-.302.8-.37zm2.856 4A3 3 0 0 0 12 4.208V2a2 2 0 0 0-2-2H2a2 2 0 0 0-2 2v14a2 2 0 0 0 2 2h8a2 2 0 0 0 2-2h4a2 2 0 0 0 2-2v-.334c0-2.104-1.3-3.906-3.144-4.642zM6.108 10.6H2.405a.4.4 0 0 0 0 .8h3.703a.4.4 0 0 0 0-.8zm-.712 4H2.405a.4.4 0 0 0 0 .8h2.991a.4.4 0 0 0 0-.8zM2.405 3.4h7.2a.4.4 0 0 0 0-.8h-7.2a.4.4 0 0 0 0 .8zm0 4h5.49a.4.4 0 0 0 0-.8h-5.49a.4.4 0 0 0 0 .8zm0-2h6.353a.4.4 0 0 0 0-.8H2.405a.4.4 0 0 0 0 .8z"/>
    </defs>
    <g fill="none" fill-rule="evenodd" transform="translate(1 1)">
        <mask id="b" fill="#fff">
            <use xlink:href="#a"/>
        </mask>
        <g fill="#F9A53F" mask="url(#b)">
            <path d="M-1-1h20v20H-1z"/>
        </g>
    </g>
</svg>
