<svg xmlns="http://www.w3.org/2000/svg" xmlns:xlink="http://www.w3.org/1999/xlink" width="20" height="20" viewBox="0 0 20 20">
    <defs>
        <path id="a" d="M17.2 16c0 .662-.538 1.2-1.2 1.2H9c-.662 0-1.2-.538-1.2-1.2v-.334c0-.904.286-1.742.774-2.426a4.257 4.257 0 0 1 1.998-1.526h.002l.234.41.408.704.932 1.616a.408.408 0 0 0 .352.21c.018 0 .034-.002.052-.004.016-.002.034-.004.05-.01a.45.45 0 0 0 .086-.034l.007-.004.013-.007.006-.003a.584.584 0 0 0 .042-.032c.01-.008.02-.016.028-.026a.352.352 0 0 0 .064-.08l.002-.004 1.578-2.734a4.207 4.207 0 0 1 2.772 3.95V16zM2 12.44c-.662 0-1.2-.538-1.2-1.2v-1a4.202 4.202 0 0 1 2.82-3.964L5.654 9.8l.01.012a.39.39 0 0 0 .046.06c.006.006.01.013.017.018.022.021.046.04.074.056h.001c.024.015.05.024.076.032A.4.4 0 0 0 6 10h.001a.4.4 0 0 0 .122-.022.383.383 0 0 0 .076-.031l.002-.001a.387.387 0 0 0 .073-.056l.017-.018a.388.388 0 0 0 .047-.06c.002-.005.006-.008.009-.012l2.035-3.524a4.167 4.167 0 0 1 1.7 1.114A2.988 2.988 0 0 0 9.5 9.166c0 .704.242 1.348.644 1.858a5 5 0 0 0-1.962 1.416H2zm5.152-5.634L6 8.8 4.849 6.806h.001C5.21 6.932 5.598 7 6 7c.404 0 .79-.068 1.15-.194h.002zM6 .8c1.49 0 2.7 1.212 2.7 2.7 0 .708-.274 1.356-.724 1.836A2.697 2.697 0 0 1 6 6.2a2.704 2.704 0 0 1-1.976-.864A2.678 2.678 0 0 1 3.3 3.5C3.3 2.012 4.512.8 6 .8zm7.306 11.256l-.806 1.398-.734-1.274-.072-.124c.038.012.076.02.116.03a3.016 3.016 0 0 0 1.496-.03zm-2.712-3.988A2.21 2.21 0 0 1 12.5 6.966a2.203 2.203 0 0 1 2.072 2.936v.002c-.1.286-.26.544-.462.762l-.102.102a2.19 2.19 0 0 1-2.01.54 2.175 2.175 0 0 1-1.108-.644 2.2 2.2 0 0 1-.296-2.596zm4.262 2.956a3 3 0 0 0-4.216-4.212 4.965 4.965 0 0 0-1.824-1.23A3.504 3.504 0 0 0 6 0a3.501 3.501 0 0 0-2.814 5.58A5.001 5.001 0 0 0 0 10.24v1a2 2 0 0 0 2 2h5.63A4.951 4.951 0 0 0 7 15.666V16a2 2 0 0 0 2 2h7a2 2 0 0 0 2-2v-.334c0-2.104-1.3-3.906-3.144-4.642z"/>
    </defs>
    <g fill="none" fill-rule="evenodd" transform="translate(1 1)">
        <mask id="b" fill="#fff">
            <use xlink:href="#a"/>
        </mask>
        <g fill="#F9A53F" mask="url(#b)">
            <path d="M-1-1h20v20H-1z"/>
        </g>
    </g>
</svg>
