<svg xmlns="http://www.w3.org/2000/svg" xmlns:xlink="http://www.w3.org/1999/xlink" width="20" height="20" viewBox="0 0 20 20">
    <defs>
        <path id="a" d="M16.147 14.27h-1.454c-.55 0-.72-.438-1.708-1.44-.86-.833-1.242-.946-1.454-.946-.296 0-.38.085-.38.494v1.313c0 .353-.114.564-1.045.564-1.539 0-3.246-.931-4.446-2.667-1.807-2.54-2.3-4.446-2.3-4.841 0-.212.084-.41.493-.41h1.454c.367 0 .508.17.65.565.72 2.075 1.919 3.895 2.413 3.895.183 0 .268-.084.268-.55V8.102c-.056-.988-.579-1.073-.579-1.426 0-.17.141-.339.367-.339h2.287c.31 0 .423.17.423.537v2.893c0 .31.141.424.226.424.184 0 .339-.113.678-.452 1.044-1.172 1.792-2.978 1.792-2.978.099-.212.268-.41.635-.41h1.454c.438 0 .536.226.438.537-.184.847-1.962 3.359-1.962 3.359-.156.254-.212.367 0 .65.155.211.663.649 1.002 1.044.62.705 1.1 1.298 1.228 1.708.14.409-.07.62-.48.62M13.07 0H6.93C1.327 0 0 1.327 0 6.93v6.14C0 18.673 1.327 20 6.93 20h6.14c5.603 0 6.93-1.327 6.93-6.93V6.93C20 1.327 18.66 0 13.07 0"/>
    </defs>
    <g fill="none" fill-rule="evenodd">
        <mask id="b" fill="#fff">
            <use xlink:href="#a"/>
        </mask>
        <g fill="#f9a53f" mask="url(#b)">
            <path d="M0 0h20v20H0z"/>
        </g>
    </g>
</svg>
